<?xml version="1.0" encoding="utf-8" standalone="no"?>
<!DOCTYPE svg PUBLIC "-//W3C//DTD SVG 1.1//EN"
  "http://www.w3.org/Graphics/SVG/1.1/DTD/svg11.dtd">
<svg xmlns:xlink="http://www.w3.org/1999/xlink" width="720pt" height="504pt" viewBox="0 0 720 504" xmlns="http://www.w3.org/2000/svg" version="1.1">
 <metadata>
  <rdf:RDF xmlns:dc="http://purl.org/dc/elements/1.1/" xmlns:cc="http://creativecommons.org/ns#" xmlns:rdf="http://www.w3.org/1999/02/22-rdf-syntax-ns#">
   <cc:Work>
    <dc:type rdf:resource="http://purl.org/dc/dcmitype/StillImage"/>
    <dc:date>2022-02-26T18:27:21.245064</dc:date>
    <dc:format>image/svg+xml</dc:format>
    <dc:creator>
     <cc:Agent>
      <dc:title>Matplotlib v3.5.1, https://matplotlib.org/</dc:title>
     </cc:Agent>
    </dc:creator>
   </cc:Work>
  </rdf:RDF>
 </metadata>
 <defs>
  <style type="text/css">*{stroke-linejoin: round; stroke-linecap: butt}</style>
 </defs>
 <g id="figure_1">
  <g id="patch_1">
   <path d="M 0 504 
L 720 504 
L 720 0 
L 0 0 
L 0 504 
z
" style="fill: none"/>
  </g>
  <g id="axes_1">
   <g id="patch_2">
    <path d="M 90 441 
L 648 441 
L 648 60.48 
L 90 60.48 
z
" style="fill: #ffffff"/>
   </g>
   <g id="matplotlib.axis_1">
    <g id="xtick_1">
     <g id="line2d_1">
      <defs>
       <path id="mde60d337d4" d="M 0 0 
L 0 3.5 
" style="stroke: #000000; stroke-width: 0.8"/>
      </defs>
      <g>
       <use xlink:href="#mde60d337d4" x="90" y="441" style="stroke: #000000; stroke-width: 0.8"/>
      </g>
     </g>
     <g id="text_1">
      <!-- 2020-01 -->
      <g transform="translate(69.108594 455.598437)scale(0.1 -0.1)">
       <defs>
        <path id="DejaVuSans-32" d="M 1228 531 
L 3431 531 
L 3431 0 
L 469 0 
L 469 531 
Q 828 903 1448 1529 
Q 2069 2156 2228 2338 
Q 2531 2678 2651 2914 
Q 2772 3150 2772 3378 
Q 2772 3750 2511 3984 
Q 2250 4219 1831 4219 
Q 1534 4219 1204 4116 
Q 875 4013 500 3803 
L 500 4441 
Q 881 4594 1212 4672 
Q 1544 4750 1819 4750 
Q 2544 4750 2975 4387 
Q 3406 4025 3406 3419 
Q 3406 3131 3298 2873 
Q 3191 2616 2906 2266 
Q 2828 2175 2409 1742 
Q 1991 1309 1228 531 
z
" transform="scale(0.015625)"/>
        <path id="DejaVuSans-30" d="M 2034 4250 
Q 1547 4250 1301 3770 
Q 1056 3291 1056 2328 
Q 1056 1369 1301 889 
Q 1547 409 2034 409 
Q 2525 409 2770 889 
Q 3016 1369 3016 2328 
Q 3016 3291 2770 3770 
Q 2525 4250 2034 4250 
z
M 2034 4750 
Q 2819 4750 3233 4129 
Q 3647 3509 3647 2328 
Q 3647 1150 3233 529 
Q 2819 -91 2034 -91 
Q 1250 -91 836 529 
Q 422 1150 422 2328 
Q 422 3509 836 4129 
Q 1250 4750 2034 4750 
z
" transform="scale(0.015625)"/>
        <path id="DejaVuSans-2d" d="M 313 2009 
L 1997 2009 
L 1997 1497 
L 313 1497 
L 313 2009 
z
" transform="scale(0.015625)"/>
        <path id="DejaVuSans-31" d="M 794 531 
L 1825 531 
L 1825 4091 
L 703 3866 
L 703 4441 
L 1819 4666 
L 2450 4666 
L 2450 531 
L 3481 531 
L 3481 0 
L 794 0 
L 794 531 
z
" transform="scale(0.015625)"/>
       </defs>
       <use xlink:href="#DejaVuSans-32"/>
       <use xlink:href="#DejaVuSans-30" x="63.623047"/>
       <use xlink:href="#DejaVuSans-32" x="127.246094"/>
       <use xlink:href="#DejaVuSans-30" x="190.869141"/>
       <use xlink:href="#DejaVuSans-2d" x="254.492188"/>
       <use xlink:href="#DejaVuSans-30" x="290.576172"/>
       <use xlink:href="#DejaVuSans-31" x="354.199219"/>
      </g>
     </g>
    </g>
    <g id="xtick_2">
     <g id="line2d_2">
      <g>
       <use xlink:href="#mde60d337d4" x="159.558904" y="441" style="stroke: #000000; stroke-width: 0.8"/>
      </g>
     </g>
     <g id="text_2">
      <!-- 2020-04 -->
      <g transform="translate(138.667498 455.598437)scale(0.1 -0.1)">
       <defs>
        <path id="DejaVuSans-34" d="M 2419 4116 
L 825 1625 
L 2419 1625 
L 2419 4116 
z
M 2253 4666 
L 3047 4666 
L 3047 1625 
L 3713 1625 
L 3713 1100 
L 3047 1100 
L 3047 0 
L 2419 0 
L 2419 1100 
L 313 1100 
L 313 1709 
L 2253 4666 
z
" transform="scale(0.015625)"/>
       </defs>
       <use xlink:href="#DejaVuSans-32"/>
       <use xlink:href="#DejaVuSans-30" x="63.623047"/>
       <use xlink:href="#DejaVuSans-32" x="127.246094"/>
       <use xlink:href="#DejaVuSans-30" x="190.869141"/>
       <use xlink:href="#DejaVuSans-2d" x="254.492188"/>
       <use xlink:href="#DejaVuSans-30" x="290.576172"/>
       <use xlink:href="#DejaVuSans-34" x="354.199219"/>
      </g>
     </g>
    </g>
    <g id="xtick_3">
     <g id="line2d_3">
      <g>
       <use xlink:href="#mde60d337d4" x="229.117808" y="441" style="stroke: #000000; stroke-width: 0.8"/>
      </g>
     </g>
     <g id="text_3">
      <!-- 2020-07 -->
      <g transform="translate(208.226402 455.598437)scale(0.1 -0.1)">
       <defs>
        <path id="DejaVuSans-37" d="M 525 4666 
L 3525 4666 
L 3525 4397 
L 1831 0 
L 1172 0 
L 2766 4134 
L 525 4134 
L 525 4666 
z
" transform="scale(0.015625)"/>
       </defs>
       <use xlink:href="#DejaVuSans-32"/>
       <use xlink:href="#DejaVuSans-30" x="63.623047"/>
       <use xlink:href="#DejaVuSans-32" x="127.246094"/>
       <use xlink:href="#DejaVuSans-30" x="190.869141"/>
       <use xlink:href="#DejaVuSans-2d" x="254.492188"/>
       <use xlink:href="#DejaVuSans-30" x="290.576172"/>
       <use xlink:href="#DejaVuSans-37" x="354.199219"/>
      </g>
     </g>
    </g>
    <g id="xtick_4">
     <g id="line2d_4">
      <g>
       <use xlink:href="#mde60d337d4" x="299.441096" y="441" style="stroke: #000000; stroke-width: 0.8"/>
      </g>
     </g>
     <g id="text_4">
      <!-- 2020-10 -->
      <g transform="translate(278.54969 455.598437)scale(0.1 -0.1)">
       <use xlink:href="#DejaVuSans-32"/>
       <use xlink:href="#DejaVuSans-30" x="63.623047"/>
       <use xlink:href="#DejaVuSans-32" x="127.246094"/>
       <use xlink:href="#DejaVuSans-30" x="190.869141"/>
       <use xlink:href="#DejaVuSans-2d" x="254.492188"/>
       <use xlink:href="#DejaVuSans-31" x="290.576172"/>
       <use xlink:href="#DejaVuSans-30" x="354.199219"/>
      </g>
     </g>
    </g>
    <g id="xtick_5">
     <g id="line2d_5">
      <g>
       <use xlink:href="#mde60d337d4" x="369.764384" y="441" style="stroke: #000000; stroke-width: 0.8"/>
      </g>
     </g>
     <g id="text_5">
      <!-- 2021-01 -->
      <g transform="translate(348.872977 455.598437)scale(0.1 -0.1)">
       <use xlink:href="#DejaVuSans-32"/>
       <use xlink:href="#DejaVuSans-30" x="63.623047"/>
       <use xlink:href="#DejaVuSans-32" x="127.246094"/>
       <use xlink:href="#DejaVuSans-31" x="190.869141"/>
       <use xlink:href="#DejaVuSans-2d" x="254.492188"/>
       <use xlink:href="#DejaVuSans-30" x="290.576172"/>
       <use xlink:href="#DejaVuSans-31" x="354.199219"/>
      </g>
     </g>
    </g>
    <g id="xtick_6">
     <g id="line2d_6">
      <g>
       <use xlink:href="#mde60d337d4" x="438.558904" y="441" style="stroke: #000000; stroke-width: 0.8"/>
      </g>
     </g>
     <g id="text_6">
      <!-- 2021-04 -->
      <g transform="translate(417.667498 455.598437)scale(0.1 -0.1)">
       <use xlink:href="#DejaVuSans-32"/>
       <use xlink:href="#DejaVuSans-30" x="63.623047"/>
       <use xlink:href="#DejaVuSans-32" x="127.246094"/>
       <use xlink:href="#DejaVuSans-31" x="190.869141"/>
       <use xlink:href="#DejaVuSans-2d" x="254.492188"/>
       <use xlink:href="#DejaVuSans-30" x="290.576172"/>
       <use xlink:href="#DejaVuSans-34" x="354.199219"/>
      </g>
     </g>
    </g>
    <g id="xtick_7">
     <g id="line2d_7">
      <g>
       <use xlink:href="#mde60d337d4" x="508.117808" y="441" style="stroke: #000000; stroke-width: 0.8"/>
      </g>
     </g>
     <g id="text_7">
      <!-- 2021-07 -->
      <g transform="translate(487.226402 455.598437)scale(0.1 -0.1)">
       <use xlink:href="#DejaVuSans-32"/>
       <use xlink:href="#DejaVuSans-30" x="63.623047"/>
       <use xlink:href="#DejaVuSans-32" x="127.246094"/>
       <use xlink:href="#DejaVuSans-31" x="190.869141"/>
       <use xlink:href="#DejaVuSans-2d" x="254.492188"/>
       <use xlink:href="#DejaVuSans-30" x="290.576172"/>
       <use xlink:href="#DejaVuSans-37" x="354.199219"/>
      </g>
     </g>
    </g>
    <g id="xtick_8">
     <g id="line2d_8">
      <g>
       <use xlink:href="#mde60d337d4" x="578.441096" y="441" style="stroke: #000000; stroke-width: 0.8"/>
      </g>
     </g>
     <g id="text_8">
      <!-- 2021-10 -->
      <g transform="translate(557.54969 455.598437)scale(0.1 -0.1)">
       <use xlink:href="#DejaVuSans-32"/>
       <use xlink:href="#DejaVuSans-30" x="63.623047"/>
       <use xlink:href="#DejaVuSans-32" x="127.246094"/>
       <use xlink:href="#DejaVuSans-31" x="190.869141"/>
       <use xlink:href="#DejaVuSans-2d" x="254.492188"/>
       <use xlink:href="#DejaVuSans-31" x="290.576172"/>
       <use xlink:href="#DejaVuSans-30" x="354.199219"/>
      </g>
     </g>
    </g>
    <g id="text_9">
     <!-- Time (Month) -->
     <g transform="translate(335.604688 469.276563)scale(0.1 -0.1)">
      <defs>
       <path id="DejaVuSans-54" d="M -19 4666 
L 3928 4666 
L 3928 4134 
L 2272 4134 
L 2272 0 
L 1638 0 
L 1638 4134 
L -19 4134 
L -19 4666 
z
" transform="scale(0.015625)"/>
       <path id="DejaVuSans-69" d="M 603 3500 
L 1178 3500 
L 1178 0 
L 603 0 
L 603 3500 
z
M 603 4863 
L 1178 4863 
L 1178 4134 
L 603 4134 
L 603 4863 
z
" transform="scale(0.015625)"/>
       <path id="DejaVuSans-6d" d="M 3328 2828 
Q 3544 3216 3844 3400 
Q 4144 3584 4550 3584 
Q 5097 3584 5394 3201 
Q 5691 2819 5691 2113 
L 5691 0 
L 5113 0 
L 5113 2094 
Q 5113 2597 4934 2840 
Q 4756 3084 4391 3084 
Q 3944 3084 3684 2787 
Q 3425 2491 3425 1978 
L 3425 0 
L 2847 0 
L 2847 2094 
Q 2847 2600 2669 2842 
Q 2491 3084 2119 3084 
Q 1678 3084 1418 2786 
Q 1159 2488 1159 1978 
L 1159 0 
L 581 0 
L 581 3500 
L 1159 3500 
L 1159 2956 
Q 1356 3278 1631 3431 
Q 1906 3584 2284 3584 
Q 2666 3584 2933 3390 
Q 3200 3197 3328 2828 
z
" transform="scale(0.015625)"/>
       <path id="DejaVuSans-65" d="M 3597 1894 
L 3597 1613 
L 953 1613 
Q 991 1019 1311 708 
Q 1631 397 2203 397 
Q 2534 397 2845 478 
Q 3156 559 3463 722 
L 3463 178 
Q 3153 47 2828 -22 
Q 2503 -91 2169 -91 
Q 1331 -91 842 396 
Q 353 884 353 1716 
Q 353 2575 817 3079 
Q 1281 3584 2069 3584 
Q 2775 3584 3186 3129 
Q 3597 2675 3597 1894 
z
M 3022 2063 
Q 3016 2534 2758 2815 
Q 2500 3097 2075 3097 
Q 1594 3097 1305 2825 
Q 1016 2553 972 2059 
L 3022 2063 
z
" transform="scale(0.015625)"/>
       <path id="DejaVuSans-20" transform="scale(0.015625)"/>
       <path id="DejaVuSans-28" d="M 1984 4856 
Q 1566 4138 1362 3434 
Q 1159 2731 1159 2009 
Q 1159 1288 1364 580 
Q 1569 -128 1984 -844 
L 1484 -844 
Q 1016 -109 783 600 
Q 550 1309 550 2009 
Q 550 2706 781 3412 
Q 1013 4119 1484 4856 
L 1984 4856 
z
" transform="scale(0.015625)"/>
       <path id="DejaVuSans-4d" d="M 628 4666 
L 1569 4666 
L 2759 1491 
L 3956 4666 
L 4897 4666 
L 4897 0 
L 4281 0 
L 4281 4097 
L 3078 897 
L 2444 897 
L 1241 4097 
L 1241 0 
L 628 0 
L 628 4666 
z
" transform="scale(0.015625)"/>
       <path id="DejaVuSans-6f" d="M 1959 3097 
Q 1497 3097 1228 2736 
Q 959 2375 959 1747 
Q 959 1119 1226 758 
Q 1494 397 1959 397 
Q 2419 397 2687 759 
Q 2956 1122 2956 1747 
Q 2956 2369 2687 2733 
Q 2419 3097 1959 3097 
z
M 1959 3584 
Q 2709 3584 3137 3096 
Q 3566 2609 3566 1747 
Q 3566 888 3137 398 
Q 2709 -91 1959 -91 
Q 1206 -91 779 398 
Q 353 888 353 1747 
Q 353 2609 779 3096 
Q 1206 3584 1959 3584 
z
" transform="scale(0.015625)"/>
       <path id="DejaVuSans-6e" d="M 3513 2113 
L 3513 0 
L 2938 0 
L 2938 2094 
Q 2938 2591 2744 2837 
Q 2550 3084 2163 3084 
Q 1697 3084 1428 2787 
Q 1159 2491 1159 1978 
L 1159 0 
L 581 0 
L 581 3500 
L 1159 3500 
L 1159 2956 
Q 1366 3272 1645 3428 
Q 1925 3584 2291 3584 
Q 2894 3584 3203 3211 
Q 3513 2838 3513 2113 
z
" transform="scale(0.015625)"/>
       <path id="DejaVuSans-74" d="M 1172 4494 
L 1172 3500 
L 2356 3500 
L 2356 3053 
L 1172 3053 
L 1172 1153 
Q 1172 725 1289 603 
Q 1406 481 1766 481 
L 2356 481 
L 2356 0 
L 1766 0 
Q 1100 0 847 248 
Q 594 497 594 1153 
L 594 3053 
L 172 3053 
L 172 3500 
L 594 3500 
L 594 4494 
L 1172 4494 
z
" transform="scale(0.015625)"/>
       <path id="DejaVuSans-68" d="M 3513 2113 
L 3513 0 
L 2938 0 
L 2938 2094 
Q 2938 2591 2744 2837 
Q 2550 3084 2163 3084 
Q 1697 3084 1428 2787 
Q 1159 2491 1159 1978 
L 1159 0 
L 581 0 
L 581 4863 
L 1159 4863 
L 1159 2956 
Q 1366 3272 1645 3428 
Q 1925 3584 2291 3584 
Q 2894 3584 3203 3211 
Q 3513 2838 3513 2113 
z
" transform="scale(0.015625)"/>
       <path id="DejaVuSans-29" d="M 513 4856 
L 1013 4856 
Q 1481 4119 1714 3412 
Q 1947 2706 1947 2009 
Q 1947 1309 1714 600 
Q 1481 -109 1013 -844 
L 513 -844 
Q 928 -128 1133 580 
Q 1338 1288 1338 2009 
Q 1338 2731 1133 3434 
Q 928 4138 513 4856 
z
" transform="scale(0.015625)"/>
      </defs>
      <use xlink:href="#DejaVuSans-54"/>
      <use xlink:href="#DejaVuSans-69" x="57.958984"/>
      <use xlink:href="#DejaVuSans-6d" x="85.742188"/>
      <use xlink:href="#DejaVuSans-65" x="183.154297"/>
      <use xlink:href="#DejaVuSans-20" x="244.677734"/>
      <use xlink:href="#DejaVuSans-28" x="276.464844"/>
      <use xlink:href="#DejaVuSans-4d" x="315.478516"/>
      <use xlink:href="#DejaVuSans-6f" x="401.757812"/>
      <use xlink:href="#DejaVuSans-6e" x="462.939453"/>
      <use xlink:href="#DejaVuSans-74" x="526.318359"/>
      <use xlink:href="#DejaVuSans-68" x="565.527344"/>
      <use xlink:href="#DejaVuSans-29" x="628.90625"/>
     </g>
    </g>
   </g>
   <g id="matplotlib.axis_2">
    <g id="ytick_1">
     <g id="line2d_9">
      <defs>
       <path id="m909dd3fae4" d="M 0 0 
L -3.5 0 
" style="stroke: #000000; stroke-width: 0.8"/>
      </defs>
      <g>
       <use xlink:href="#m909dd3fae4" x="90" y="414.626765" style="stroke: #000000; stroke-width: 0.8"/>
      </g>
     </g>
     <g id="text_10">
      <!-- 0.04 -->
      <g transform="translate(60.734375 418.425983)scale(0.1 -0.1)">
       <defs>
        <path id="DejaVuSans-2e" d="M 684 794 
L 1344 794 
L 1344 0 
L 684 0 
L 684 794 
z
" transform="scale(0.015625)"/>
       </defs>
       <use xlink:href="#DejaVuSans-30"/>
       <use xlink:href="#DejaVuSans-2e" x="63.623047"/>
       <use xlink:href="#DejaVuSans-30" x="95.410156"/>
       <use xlink:href="#DejaVuSans-34" x="159.033203"/>
      </g>
     </g>
    </g>
    <g id="ytick_2">
     <g id="line2d_10">
      <g>
       <use xlink:href="#m909dd3fae4" x="90" y="353.800486" style="stroke: #000000; stroke-width: 0.8"/>
      </g>
     </g>
     <g id="text_11">
      <!-- 0.06 -->
      <g transform="translate(60.734375 357.599705)scale(0.1 -0.1)">
       <defs>
        <path id="DejaVuSans-36" d="M 2113 2584 
Q 1688 2584 1439 2293 
Q 1191 2003 1191 1497 
Q 1191 994 1439 701 
Q 1688 409 2113 409 
Q 2538 409 2786 701 
Q 3034 994 3034 1497 
Q 3034 2003 2786 2293 
Q 2538 2584 2113 2584 
z
M 3366 4563 
L 3366 3988 
Q 3128 4100 2886 4159 
Q 2644 4219 2406 4219 
Q 1781 4219 1451 3797 
Q 1122 3375 1075 2522 
Q 1259 2794 1537 2939 
Q 1816 3084 2150 3084 
Q 2853 3084 3261 2657 
Q 3669 2231 3669 1497 
Q 3669 778 3244 343 
Q 2819 -91 2113 -91 
Q 1303 -91 875 529 
Q 447 1150 447 2328 
Q 447 3434 972 4092 
Q 1497 4750 2381 4750 
Q 2619 4750 2861 4703 
Q 3103 4656 3366 4563 
z
" transform="scale(0.015625)"/>
       </defs>
       <use xlink:href="#DejaVuSans-30"/>
       <use xlink:href="#DejaVuSans-2e" x="63.623047"/>
       <use xlink:href="#DejaVuSans-30" x="95.410156"/>
       <use xlink:href="#DejaVuSans-36" x="159.033203"/>
      </g>
     </g>
    </g>
    <g id="ytick_3">
     <g id="line2d_11">
      <g>
       <use xlink:href="#m909dd3fae4" x="90" y="292.974207" style="stroke: #000000; stroke-width: 0.8"/>
      </g>
     </g>
     <g id="text_12">
      <!-- 0.08 -->
      <g transform="translate(60.734375 296.773426)scale(0.1 -0.1)">
       <defs>
        <path id="DejaVuSans-38" d="M 2034 2216 
Q 1584 2216 1326 1975 
Q 1069 1734 1069 1313 
Q 1069 891 1326 650 
Q 1584 409 2034 409 
Q 2484 409 2743 651 
Q 3003 894 3003 1313 
Q 3003 1734 2745 1975 
Q 2488 2216 2034 2216 
z
M 1403 2484 
Q 997 2584 770 2862 
Q 544 3141 544 3541 
Q 544 4100 942 4425 
Q 1341 4750 2034 4750 
Q 2731 4750 3128 4425 
Q 3525 4100 3525 3541 
Q 3525 3141 3298 2862 
Q 3072 2584 2669 2484 
Q 3125 2378 3379 2068 
Q 3634 1759 3634 1313 
Q 3634 634 3220 271 
Q 2806 -91 2034 -91 
Q 1263 -91 848 271 
Q 434 634 434 1313 
Q 434 1759 690 2068 
Q 947 2378 1403 2484 
z
M 1172 3481 
Q 1172 3119 1398 2916 
Q 1625 2713 2034 2713 
Q 2441 2713 2670 2916 
Q 2900 3119 2900 3481 
Q 2900 3844 2670 4047 
Q 2441 4250 2034 4250 
Q 1625 4250 1398 4047 
Q 1172 3844 1172 3481 
z
" transform="scale(0.015625)"/>
       </defs>
       <use xlink:href="#DejaVuSans-30"/>
       <use xlink:href="#DejaVuSans-2e" x="63.623047"/>
       <use xlink:href="#DejaVuSans-30" x="95.410156"/>
       <use xlink:href="#DejaVuSans-38" x="159.033203"/>
      </g>
     </g>
    </g>
    <g id="ytick_4">
     <g id="line2d_12">
      <g>
       <use xlink:href="#m909dd3fae4" x="90" y="232.147928" style="stroke: #000000; stroke-width: 0.8"/>
      </g>
     </g>
     <g id="text_13">
      <!-- 0.10 -->
      <g transform="translate(60.734375 235.947147)scale(0.1 -0.1)">
       <use xlink:href="#DejaVuSans-30"/>
       <use xlink:href="#DejaVuSans-2e" x="63.623047"/>
       <use xlink:href="#DejaVuSans-31" x="95.410156"/>
       <use xlink:href="#DejaVuSans-30" x="159.033203"/>
      </g>
     </g>
    </g>
    <g id="ytick_5">
     <g id="line2d_13">
      <g>
       <use xlink:href="#m909dd3fae4" x="90" y="171.321649" style="stroke: #000000; stroke-width: 0.8"/>
      </g>
     </g>
     <g id="text_14">
      <!-- 0.12 -->
      <g transform="translate(60.734375 175.120868)scale(0.1 -0.1)">
       <use xlink:href="#DejaVuSans-30"/>
       <use xlink:href="#DejaVuSans-2e" x="63.623047"/>
       <use xlink:href="#DejaVuSans-31" x="95.410156"/>
       <use xlink:href="#DejaVuSans-32" x="159.033203"/>
      </g>
     </g>
    </g>
    <g id="ytick_6">
     <g id="line2d_14">
      <g>
       <use xlink:href="#m909dd3fae4" x="90" y="110.495371" style="stroke: #000000; stroke-width: 0.8"/>
      </g>
     </g>
     <g id="text_15">
      <!-- 0.14 -->
      <g transform="translate(60.734375 114.294589)scale(0.1 -0.1)">
       <use xlink:href="#DejaVuSans-30"/>
       <use xlink:href="#DejaVuSans-2e" x="63.623047"/>
       <use xlink:href="#DejaVuSans-31" x="95.410156"/>
       <use xlink:href="#DejaVuSans-34" x="159.033203"/>
      </g>
     </g>
    </g>
    <g id="text_16">
     <!-- Weighted Sentiment -->
     <g transform="translate(54.654687 301.843125)rotate(-90)scale(0.1 -0.1)">
      <defs>
       <path id="DejaVuSans-57" d="M 213 4666 
L 850 4666 
L 1831 722 
L 2809 4666 
L 3519 4666 
L 4500 722 
L 5478 4666 
L 6119 4666 
L 4947 0 
L 4153 0 
L 3169 4050 
L 2175 0 
L 1381 0 
L 213 4666 
z
" transform="scale(0.015625)"/>
       <path id="DejaVuSans-67" d="M 2906 1791 
Q 2906 2416 2648 2759 
Q 2391 3103 1925 3103 
Q 1463 3103 1205 2759 
Q 947 2416 947 1791 
Q 947 1169 1205 825 
Q 1463 481 1925 481 
Q 2391 481 2648 825 
Q 2906 1169 2906 1791 
z
M 3481 434 
Q 3481 -459 3084 -895 
Q 2688 -1331 1869 -1331 
Q 1566 -1331 1297 -1286 
Q 1028 -1241 775 -1147 
L 775 -588 
Q 1028 -725 1275 -790 
Q 1522 -856 1778 -856 
Q 2344 -856 2625 -561 
Q 2906 -266 2906 331 
L 2906 616 
Q 2728 306 2450 153 
Q 2172 0 1784 0 
Q 1141 0 747 490 
Q 353 981 353 1791 
Q 353 2603 747 3093 
Q 1141 3584 1784 3584 
Q 2172 3584 2450 3431 
Q 2728 3278 2906 2969 
L 2906 3500 
L 3481 3500 
L 3481 434 
z
" transform="scale(0.015625)"/>
       <path id="DejaVuSans-64" d="M 2906 2969 
L 2906 4863 
L 3481 4863 
L 3481 0 
L 2906 0 
L 2906 525 
Q 2725 213 2448 61 
Q 2172 -91 1784 -91 
Q 1150 -91 751 415 
Q 353 922 353 1747 
Q 353 2572 751 3078 
Q 1150 3584 1784 3584 
Q 2172 3584 2448 3432 
Q 2725 3281 2906 2969 
z
M 947 1747 
Q 947 1113 1208 752 
Q 1469 391 1925 391 
Q 2381 391 2643 752 
Q 2906 1113 2906 1747 
Q 2906 2381 2643 2742 
Q 2381 3103 1925 3103 
Q 1469 3103 1208 2742 
Q 947 2381 947 1747 
z
" transform="scale(0.015625)"/>
       <path id="DejaVuSans-53" d="M 3425 4513 
L 3425 3897 
Q 3066 4069 2747 4153 
Q 2428 4238 2131 4238 
Q 1616 4238 1336 4038 
Q 1056 3838 1056 3469 
Q 1056 3159 1242 3001 
Q 1428 2844 1947 2747 
L 2328 2669 
Q 3034 2534 3370 2195 
Q 3706 1856 3706 1288 
Q 3706 609 3251 259 
Q 2797 -91 1919 -91 
Q 1588 -91 1214 -16 
Q 841 59 441 206 
L 441 856 
Q 825 641 1194 531 
Q 1563 422 1919 422 
Q 2459 422 2753 634 
Q 3047 847 3047 1241 
Q 3047 1584 2836 1778 
Q 2625 1972 2144 2069 
L 1759 2144 
Q 1053 2284 737 2584 
Q 422 2884 422 3419 
Q 422 4038 858 4394 
Q 1294 4750 2059 4750 
Q 2388 4750 2728 4690 
Q 3069 4631 3425 4513 
z
" transform="scale(0.015625)"/>
      </defs>
      <use xlink:href="#DejaVuSans-57"/>
      <use xlink:href="#DejaVuSans-65" x="93.001953"/>
      <use xlink:href="#DejaVuSans-69" x="154.525391"/>
      <use xlink:href="#DejaVuSans-67" x="182.308594"/>
      <use xlink:href="#DejaVuSans-68" x="245.785156"/>
      <use xlink:href="#DejaVuSans-74" x="309.164062"/>
      <use xlink:href="#DejaVuSans-65" x="348.373047"/>
      <use xlink:href="#DejaVuSans-64" x="409.896484"/>
      <use xlink:href="#DejaVuSans-20" x="473.373047"/>
      <use xlink:href="#DejaVuSans-53" x="505.160156"/>
      <use xlink:href="#DejaVuSans-65" x="568.636719"/>
      <use xlink:href="#DejaVuSans-6e" x="630.160156"/>
      <use xlink:href="#DejaVuSans-74" x="693.539062"/>
      <use xlink:href="#DejaVuSans-69" x="732.748047"/>
      <use xlink:href="#DejaVuSans-6d" x="760.53125"/>
      <use xlink:href="#DejaVuSans-65" x="857.943359"/>
      <use xlink:href="#DejaVuSans-6e" x="919.466797"/>
      <use xlink:href="#DejaVuSans-74" x="982.845703"/>
     </g>
    </g>
   </g>
   <g id="line2d_15">
    <path d="M 90 261.078669 
L 90.764384 261.513026 
L 92.293151 262.82306 
L 93.057534 262.996191 
L 93.821918 262.381645 
L 94.586301 260.745698 
L 95.350685 258.016494 
L 96.115068 254.274282 
L 97.643836 244.636899 
L 99.936986 228.956767 
L 101.465753 220.271476 
L 102.230137 216.965922 
L 102.994521 214.571818 
L 103.758904 213.248443 
L 104.523288 213.105831 
L 105.287671 214.191995 
L 106.052055 216.431826 
L 106.816438 219.61744 
L 109.109589 231.058219 
L 109.873973 233.969745 
L 110.638356 235.738055 
L 111.40274 236.1105 
L 112.167123 235.000673 
L 112.931507 232.502951 
L 113.69589 228.890347 
L 115.989041 215.887145 
L 116.753425 212.56578 
L 117.517808 210.487476 
L 118.282192 209.885057 
L 119.046575 210.798116 
L 119.810959 213.061212 
L 120.575342 216.336594 
L 122.868493 227.24162 
L 123.632877 229.591332 
L 124.39726 230.736636 
L 125.161644 230.611377 
L 125.926027 229.350952 
L 126.690411 227.273977 
L 128.219178 222.557124 
L 128.983562 220.939705 
L 129.747945 220.398817 
L 130.512329 221.214743 
L 131.276712 223.494474 
L 132.041096 227.179151 
L 132.805479 232.069822 
L 134.334247 244.174838 
L 136.627397 263.183273 
L 138.156164 274.017103 
L 139.684932 283.098789 
L 141.213699 290.721381 
L 142.742466 296.833862 
L 143.506849 299.203935 
L 144.271233 301.046129 
L 145.035616 302.357243 
L 145.8 303.178141 
L 146.564384 303.609043 
L 148.857534 304.180226 
L 149.621918 304.742689 
L 150.386301 305.714289 
L 151.150685 307.116435 
L 153.443836 312.259462 
L 154.208219 313.217993 
L 154.972603 313.135787 
L 155.736986 311.658881 
L 156.50137 308.56611 
L 157.265753 303.814268 
L 158.030137 297.540618 
L 159.558904 281.802454 
L 161.852055 257.375113 
L 162.616438 250.73976 
L 163.380822 245.256375 
L 164.145205 240.969759 
L 164.909589 237.817013 
L 165.673973 235.674004 
L 166.438356 234.398163 
L 167.20274 233.857001 
L 167.967123 233.933241 
L 168.731507 234.548253 
L 169.49589 235.590265 
L 171.789041 239.381359 
L 172.553425 239.887478 
L 173.317808 239.430018 
L 174.082192 237.725691 
L 174.846575 234.632511 
L 175.610959 230.198349 
L 177.139726 218.337082 
L 179.432877 199.007178 
L 180.961644 188.282906 
L 184.019178 170.186567 
L 186.312329 156.725632 
L 187.076712 152.824588 
L 187.841096 149.594901 
L 188.605479 147.234915 
L 189.369863 145.884769 
L 190.134247 145.607831 
L 190.89863 146.380499 
L 191.663014 148.114509 
L 192.427397 150.671733 
L 193.191781 153.893722 
L 194.720548 161.748232 
L 196.249315 170.812336 
L 198.542466 185.963312 
L 203.893151 223.3255 
L 205.421918 231.872771 
L 206.950685 238.778394 
L 208.479452 244.481372 
L 210.008219 249.58489 
L 211.536986 253.856036 
L 212.30137 255.169495 
L 213.065753 255.472982 
L 213.830137 254.385344 
L 214.594521 251.581987 
L 215.358904 246.867574 
L 216.123288 240.257059 
L 217.652055 222.55369 
L 219.945205 193.471929 
L 220.709589 185.481583 
L 221.473973 178.896399 
L 222.238356 173.704833 
L 223.00274 169.667675 
L 224.531507 163.552857 
L 226.824658 154.717455 
L 228.353425 149.138807 
L 229.117808 147.509933 
L 229.882192 147.386922 
L 230.646575 149.347289 
L 231.410959 153.906604 
L 232.175342 161.527798 
L 232.939726 172.573112 
L 233.70411 187.261532 
L 234.468493 205.657999 
L 235.99726 252.588117 
L 239.819178 385.372183 
L 240.583562 403.433173 
L 241.347945 415.92797 
L 242.112329 422.584628 
L 242.876712 423.703636 
L 243.641096 420.084313 
L 244.405479 412.8637 
L 245.934247 392.660906 
L 247.463014 371.907073 
L 248.991781 355.104445 
L 252.049315 327.641574 
L 252.813699 318.999015 
L 253.578082 308.806517 
L 255.106849 283.890319 
L 258.164384 228.115405 
L 259.693151 205.49489 
L 260.457534 196.38174 
L 261.221918 188.642278 
L 261.986301 182.088503 
L 263.515068 171.788729 
L 264.279452 167.762127 
L 265.043836 164.453492 
L 265.808219 161.908292 
L 266.572603 160.239707 
L 267.336986 159.555906 
L 268.10137 159.921819 
L 268.865753 161.364756 
L 269.630137 163.809638 
L 270.394521 167.1287 
L 271.923288 175.729142 
L 273.452055 185.961019 
L 276.509589 207.457188 
L 277.273973 211.874799 
L 278.038356 215.231733 
L 278.80274 217.142167 
L 279.567123 217.293724 
L 280.331507 215.513573 
L 281.09589 211.814064 
L 281.860274 206.395315 
L 283.389041 191.879928 
L 286.446575 160.071175 
L 287.975342 147.548693 
L 288.739726 142.629377 
L 289.50411 138.649781 
L 290.268493 135.572855 
L 291.032877 133.263402 
L 292.561644 130.017546 
L 293.326027 128.437626 
L 294.090411 126.431656 
L 294.854795 123.730629 
L 295.619178 120.189679 
L 296.383562 115.811023 
L 297.912329 105.270335 
L 299.441096 94.404375 
L 300.205479 89.658681 
L 300.969863 85.704167 
L 301.734247 82.687311 
L 302.49863 80.685948 
L 303.263014 79.72326 
L 304.027397 79.792191 
L 304.791781 80.881314 
L 305.556164 82.983654 
L 306.320548 86.089626 
L 307.084932 90.178853 
L 307.849315 95.186431 
L 309.378082 107.35278 
L 311.671233 126.289226 
L 312.435616 131.075789 
L 313.2 134.378245 
L 313.964384 135.879827 
L 314.728767 135.392002 
L 315.493151 132.868593 
L 316.257534 128.428634 
L 317.021918 122.342467 
L 318.550685 107.030251 
L 320.079452 91.451396 
L 320.843836 85.150774 
L 321.608219 80.566716 
L 322.372603 78.060817 
L 323.136986 77.776364 
L 323.90137 79.652439 
L 324.665753 83.428884 
L 325.430137 88.709947 
L 326.958904 101.890084 
L 329.252055 121.944527 
L 330.780822 132.490413 
L 331.545205 136.584537 
L 332.309589 139.863892 
L 333.073973 142.347534 
L 333.838356 144.082683 
L 334.60274 145.142261 
L 335.367123 145.628831 
L 336.131507 145.649738 
L 336.89589 145.329267 
L 337.660274 144.762819 
L 339.189041 143.140709 
L 339.953425 142.100371 
L 340.717808 140.850419 
L 341.482192 139.312488 
L 342.246575 137.420146 
L 343.010959 135.108508 
L 343.775342 132.341925 
L 345.30411 125.403022 
L 346.832877 116.756591 
L 350.654795 92.800291 
L 351.419178 89.236155 
L 352.183562 86.711247 
L 352.947945 85.439542 
L 353.712329 85.541028 
L 354.476712 87.013764 
L 355.241096 89.728286 
L 356.005479 93.438275 
L 357.534247 102.540023 
L 359.063014 111.719961 
L 360.591781 119.477049 
L 363.649315 133.287725 
L 364.413699 137.598425 
L 365.942466 148.204203 
L 367.471233 161.186143 
L 369.764384 182.99799 
L 372.057534 206.256644 
L 373.586301 223.437063 
L 375.879452 252.483081 
L 377.408219 271.906808 
L 378.172603 280.536292 
L 378.936986 287.894399 
L 379.70137 293.638114 
L 380.465753 297.519803 
L 381.230137 299.427996 
L 381.994521 299.383041 
L 382.758904 297.539854 
L 383.523288 294.149232 
L 384.287671 289.551955 
L 385.816438 278.24408 
L 388.109589 260.86681 
L 389.638356 250.85401 
L 391.931507 237.4103 
L 393.460274 229.03382 
L 394.989041 221.960047 
L 395.753425 219.265213 
L 396.517808 217.265171 
L 397.282192 215.988763 
L 398.046575 215.405302 
L 398.810959 215.458064 
L 399.575342 216.06735 
L 400.339726 217.169683 
L 401.10411 218.711647 
L 401.868493 220.667892 
L 402.632877 223.030806 
L 404.161644 228.968683 
L 405.690411 236.350721 
L 407.983562 248.208985 
L 408.747945 251.499591 
L 409.512329 254.006662 
L 410.276712 255.485516 
L 411.041096 255.775218 
L 411.805479 254.816367 
L 412.569863 252.660444 
L 413.334247 249.464557 
L 414.863014 240.893705 
L 417.920548 221.796335 
L 419.449315 213.75402 
L 420.978082 207.259766 
L 422.506849 202.320757 
L 423.271233 200.435453 
L 424.035616 198.971045 
L 424.8 197.965701 
L 425.564384 197.473906 
L 426.328767 197.54813 
L 427.093151 198.212244 
L 427.857534 199.422386 
L 429.386301 202.926292 
L 430.150685 204.727253 
L 430.915068 206.143676 
L 431.679452 206.856409 
L 432.443836 206.616655 
L 433.208219 205.295796 
L 433.972603 202.924783 
L 434.736986 199.702316 
L 437.030137 188.777265 
L 437.794521 186.186598 
L 438.558904 184.697105 
L 439.323288 184.426411 
L 440.087671 185.318134 
L 440.852055 187.156773 
L 442.380822 192.400738 
L 444.673973 200.410323 
L 446.20274 205.660334 
L 446.967123 208.823748 
L 447.731507 212.608332 
L 449.260274 222.213717 
L 452.317808 243.970232 
L 453.082192 247.968561 
L 453.846575 250.741504 
L 454.610959 252.064912 
L 455.375342 251.802211 
L 456.139726 249.908011 
L 456.90411 246.424088 
L 457.668493 241.478562 
L 458.432877 235.281937 
L 459.961644 220.384553 
L 461.490411 204.793433 
L 462.254795 197.879761 
L 463.019178 192.202698 
L 463.783562 188.227555 
L 464.547945 186.375337 
L 465.312329 186.984735 
L 466.076712 190.272324 
L 466.841096 196.307223 
L 467.605479 204.960882 
L 468.369863 215.927458 
L 469.89863 242.691136 
L 472.191781 284.488654 
L 472.956164 296.143261 
L 473.720548 305.843282 
L 474.484932 313.358009 
L 475.249315 318.621318 
L 476.013699 321.703532 
L 476.778082 322.770106 
L 477.542466 322.017245 
L 478.306849 319.630843 
L 479.071233 315.767818 
L 479.835616 310.543747 
L 480.6 304.057146 
L 482.128767 287.782094 
L 484.421918 258.476324 
L 485.950685 239.383668 
L 487.479452 223.331734 
L 488.243836 216.806834 
L 489.008219 211.32409 
L 489.772603 206.860474 
L 490.536986 203.400667 
L 491.30137 200.969252 
L 492.065753 199.646752 
L 492.830137 199.552648 
L 493.594521 200.828863 
L 494.358904 203.574497 
L 495.123288 207.804482 
L 495.887671 213.412926 
L 497.416438 227.482741 
L 498.945205 242.041769 
L 499.709589 248.131061 
L 500.473973 252.842796 
L 501.238356 255.960602 
L 502.00274 257.480069 
L 502.767123 257.591078 
L 503.531507 256.624595 
L 504.29589 254.992618 
L 505.824658 251.260589 
L 506.589041 249.717268 
L 507.353425 248.565521 
L 508.117808 247.788614 
L 508.882192 247.312299 
L 511.939726 246.175177 
L 512.70411 245.688039 
L 514.232877 244.343456 
L 517.290411 241.313529 
L 518.819178 239.837134 
L 519.583562 238.771082 
L 520.347945 237.185798 
L 521.112329 234.836147 
L 521.876712 231.501668 
L 522.641096 227.040574 
L 523.405479 221.425877 
L 524.934247 207.29861 
L 527.227397 183.676199 
L 527.991781 176.732614 
L 528.756164 170.826475 
L 529.520548 166.148498 
L 530.284932 162.75733 
L 531.049315 160.572919 
L 531.813699 159.398486 
L 532.578082 158.937453 
L 534.106849 158.776613 
L 534.871233 158.432376 
L 535.635616 157.589834 
L 536.4 156.12564 
L 537.164384 154.027703 
L 538.693151 148.365586 
L 540.221918 142.158553 
L 540.986301 139.476803 
L 541.750685 137.376944 
L 542.515068 136.003445 
L 543.279452 135.413215 
L 544.043836 135.554823 
L 544.808219 136.298477 
L 546.336986 138.773728 
L 547.865753 141.197449 
L 548.630137 142.096583 
L 550.923288 144.268158 
L 551.687671 145.416767 
L 552.452055 147.109102 
L 553.216438 149.485485 
L 553.980822 152.608542 
L 554.745205 156.461213 
L 556.273973 165.828012 
L 558.567123 180.593944 
L 559.331507 184.66365 
L 560.09589 187.963417 
L 560.860274 190.422272 
L 561.624658 192.083244 
L 562.389041 193.11645 
L 563.917808 194.521861 
L 564.682192 195.659962 
L 565.446575 197.590494 
L 566.210959 200.592281 
L 566.975342 204.809353 
L 567.739726 210.202607 
L 569.268493 223.396633 
L 570.79726 236.287744 
L 571.561644 240.953838 
L 572.326027 243.573632 
L 573.090411 243.668815 
L 573.854795 240.989526 
L 574.619178 235.549561 
L 575.383562 227.633888 
L 576.912329 206.553646 
L 579.205479 172.470525 
L 579.969863 163.071187 
L 580.734247 155.415009 
L 581.49863 149.732872 
L 582.263014 146.111027 
L 583.027397 144.493596 
L 583.791781 144.680296 
L 584.556164 146.35601 
L 585.320548 149.120458 
L 588.378082 162.458837 
L 589.142466 164.67332 
L 589.906849 166.07045 
L 590.671233 166.583654 
L 591.435616 166.192729 
L 592.2 164.888104 
L 592.964384 162.683456 
L 593.728767 159.608475 
L 594.493151 155.736277 
L 596.021918 146.251314 
L 597.550685 136.190788 
L 598.315068 131.809506 
L 599.079452 128.352188 
L 599.843836 126.146329 
L 600.608219 125.451393 
L 601.372603 126.435179 
L 602.136986 129.172206 
L 602.90137 133.650541 
L 603.665753 139.779991 
L 604.430137 147.411614 
L 605.958904 166.37034 
L 610.545205 230.047634 
L 611.309589 237.270689 
L 612.073973 242.505639 
L 612.838356 245.62179 
L 613.60274 246.690969 
L 614.367123 245.985752 
L 615.131507 243.974283 
L 616.660274 238.499759 
L 617.424658 236.355436 
L 618.189041 235.372772 
L 618.953425 235.935154 
L 619.717808 238.219314 
L 620.482192 242.180091 
L 621.246575 247.580167 
L 622.775342 261.141129 
L 625.068493 281.942822 
L 625.832877 287.644157 
L 626.59726 292.373429 
L 627.361644 295.99307 
L 628.126027 298.389021 
L 628.890411 299.41709 
L 629.654795 298.917758 
L 630.419178 296.720262 
L 631.183562 292.664213 
L 631.947945 286.630837 
L 632.712329 278.597101 
L 633.476712 268.653993 
L 635.005479 244.059822 
L 638.827397 175.048839 
L 640.356164 153.353421 
L 641.120548 144.990409 
L 641.884932 138.479685 
L 642.649315 133.842715 
L 643.413699 130.972662 
L 644.178082 129.641462 
L 644.942466 129.501392 
L 645.706849 130.135512 
L 647.235616 132.002064 
L 648 132.534085 
L 648 132.534085 
" clip-path="url(#p7893495406)" style="fill: none; stroke: #0000ff; stroke-width: 1.5; stroke-linecap: square"/>
   </g>
   <g id="patch_3">
    <path d="M 90 441 
L 90 60.48 
" style="fill: none; stroke: #000000; stroke-width: 0.8; stroke-linejoin: miter; stroke-linecap: square"/>
   </g>
   <g id="patch_4">
    <path d="M 648 441 
L 648 60.48 
" style="fill: none; stroke: #000000; stroke-width: 0.8; stroke-linejoin: miter; stroke-linecap: square"/>
   </g>
   <g id="patch_5">
    <path d="M 90 441 
L 648 441 
" style="fill: none; stroke: #000000; stroke-width: 0.8; stroke-linejoin: miter; stroke-linecap: square"/>
   </g>
   <g id="patch_6">
    <path d="M 90 60.48 
L 648 60.48 
" style="fill: none; stroke: #000000; stroke-width: 0.8; stroke-linejoin: miter; stroke-linecap: square"/>
   </g>
   <g id="legend_1">
    <g id="patch_7">
     <path d="M 97 436 
L 218.704688 436 
Q 220.704688 436 220.704688 434 
L 220.704688 405.64375 
Q 220.704688 403.64375 218.704688 403.64375 
L 97 403.64375 
Q 95 403.64375 95 405.64375 
L 95 434 
Q 95 436 97 436 
z
" style="fill: #ffffff; opacity: 0.8; stroke: #cccccc; stroke-linejoin: miter"/>
    </g>
    <g id="line2d_16">
     <path d="M 99 411.742188 
L 109 411.742188 
L 119 411.742188 
" style="fill: none; stroke: #0000ff; stroke-width: 1.5; stroke-linecap: square"/>
    </g>
    <g id="text_17">
     <!-- Weight Sentiment -->
     <g transform="translate(127 415.242188)scale(0.1 -0.1)">
      <use xlink:href="#DejaVuSans-57"/>
      <use xlink:href="#DejaVuSans-65" x="93.001953"/>
      <use xlink:href="#DejaVuSans-69" x="154.525391"/>
      <use xlink:href="#DejaVuSans-67" x="182.308594"/>
      <use xlink:href="#DejaVuSans-68" x="245.785156"/>
      <use xlink:href="#DejaVuSans-74" x="309.164062"/>
      <use xlink:href="#DejaVuSans-20" x="348.373047"/>
      <use xlink:href="#DejaVuSans-53" x="380.160156"/>
      <use xlink:href="#DejaVuSans-65" x="443.636719"/>
      <use xlink:href="#DejaVuSans-6e" x="505.160156"/>
      <use xlink:href="#DejaVuSans-74" x="568.539062"/>
      <use xlink:href="#DejaVuSans-69" x="607.748047"/>
      <use xlink:href="#DejaVuSans-6d" x="635.53125"/>
      <use xlink:href="#DejaVuSans-65" x="732.943359"/>
      <use xlink:href="#DejaVuSans-6e" x="794.466797"/>
      <use xlink:href="#DejaVuSans-74" x="857.845703"/>
     </g>
    </g>
    <g id="line2d_17">
     <path d="M 99 426.420313 
L 109 426.420313 
L 119 426.420313 
" style="fill: none; stroke: #ffa500; stroke-width: 1.5; stroke-linecap: square"/>
    </g>
    <g id="text_18">
     <!-- Diff. Bitcoin -->
     <g transform="translate(127 429.920313)scale(0.1 -0.1)">
      <defs>
       <path id="DejaVuSans-44" d="M 1259 4147 
L 1259 519 
L 2022 519 
Q 2988 519 3436 956 
Q 3884 1394 3884 2338 
Q 3884 3275 3436 3711 
Q 2988 4147 2022 4147 
L 1259 4147 
z
M 628 4666 
L 1925 4666 
Q 3281 4666 3915 4102 
Q 4550 3538 4550 2338 
Q 4550 1131 3912 565 
Q 3275 0 1925 0 
L 628 0 
L 628 4666 
z
" transform="scale(0.015625)"/>
       <path id="DejaVuSans-66" d="M 2375 4863 
L 2375 4384 
L 1825 4384 
Q 1516 4384 1395 4259 
Q 1275 4134 1275 3809 
L 1275 3500 
L 2222 3500 
L 2222 3053 
L 1275 3053 
L 1275 0 
L 697 0 
L 697 3053 
L 147 3053 
L 147 3500 
L 697 3500 
L 697 3744 
Q 697 4328 969 4595 
Q 1241 4863 1831 4863 
L 2375 4863 
z
" transform="scale(0.015625)"/>
       <path id="DejaVuSans-42" d="M 1259 2228 
L 1259 519 
L 2272 519 
Q 2781 519 3026 730 
Q 3272 941 3272 1375 
Q 3272 1813 3026 2020 
Q 2781 2228 2272 2228 
L 1259 2228 
z
M 1259 4147 
L 1259 2741 
L 2194 2741 
Q 2656 2741 2882 2914 
Q 3109 3088 3109 3444 
Q 3109 3797 2882 3972 
Q 2656 4147 2194 4147 
L 1259 4147 
z
M 628 4666 
L 2241 4666 
Q 2963 4666 3353 4366 
Q 3744 4066 3744 3513 
Q 3744 3084 3544 2831 
Q 3344 2578 2956 2516 
Q 3422 2416 3680 2098 
Q 3938 1781 3938 1306 
Q 3938 681 3513 340 
Q 3088 0 2303 0 
L 628 0 
L 628 4666 
z
" transform="scale(0.015625)"/>
       <path id="DejaVuSans-63" d="M 3122 3366 
L 3122 2828 
Q 2878 2963 2633 3030 
Q 2388 3097 2138 3097 
Q 1578 3097 1268 2742 
Q 959 2388 959 1747 
Q 959 1106 1268 751 
Q 1578 397 2138 397 
Q 2388 397 2633 464 
Q 2878 531 3122 666 
L 3122 134 
Q 2881 22 2623 -34 
Q 2366 -91 2075 -91 
Q 1284 -91 818 406 
Q 353 903 353 1747 
Q 353 2603 823 3093 
Q 1294 3584 2113 3584 
Q 2378 3584 2631 3529 
Q 2884 3475 3122 3366 
z
" transform="scale(0.015625)"/>
      </defs>
      <use xlink:href="#DejaVuSans-44"/>
      <use xlink:href="#DejaVuSans-69" x="77.001953"/>
      <use xlink:href="#DejaVuSans-66" x="104.785156"/>
      <use xlink:href="#DejaVuSans-66" x="139.990234"/>
      <use xlink:href="#DejaVuSans-2e" x="167.945312"/>
      <use xlink:href="#DejaVuSans-20" x="199.732422"/>
      <use xlink:href="#DejaVuSans-42" x="231.519531"/>
      <use xlink:href="#DejaVuSans-69" x="300.123047"/>
      <use xlink:href="#DejaVuSans-74" x="327.90625"/>
      <use xlink:href="#DejaVuSans-63" x="367.115234"/>
      <use xlink:href="#DejaVuSans-6f" x="422.095703"/>
      <use xlink:href="#DejaVuSans-69" x="483.277344"/>
      <use xlink:href="#DejaVuSans-6e" x="511.060547"/>
     </g>
    </g>
   </g>
  </g>
  <g id="axes_2">
   <g id="matplotlib.axis_3">
    <g id="ytick_7">
     <g id="line2d_18">
      <defs>
       <path id="mc316b5724d" d="M 0 0 
L 3.5 0 
" style="stroke: #000000; stroke-width: 0.8"/>
      </defs>
      <g>
       <use xlink:href="#mc316b5724d" x="648" y="379.253665" style="stroke: #000000; stroke-width: 0.8"/>
      </g>
     </g>
     <g id="text_19">
      <!-- −1000 -->
      <g transform="translate(655 383.052884)scale(0.1 -0.1)">
       <defs>
        <path id="DejaVuSans-2212" d="M 678 2272 
L 4684 2272 
L 4684 1741 
L 678 1741 
L 678 2272 
z
" transform="scale(0.015625)"/>
       </defs>
       <use xlink:href="#DejaVuSans-2212"/>
       <use xlink:href="#DejaVuSans-31" x="83.789062"/>
       <use xlink:href="#DejaVuSans-30" x="147.412109"/>
       <use xlink:href="#DejaVuSans-30" x="211.035156"/>
       <use xlink:href="#DejaVuSans-30" x="274.658203"/>
      </g>
     </g>
    </g>
    <g id="ytick_8">
     <g id="line2d_19">
      <g>
       <use xlink:href="#mc316b5724d" x="648" y="305.96816" style="stroke: #000000; stroke-width: 0.8"/>
      </g>
     </g>
     <g id="text_20">
      <!-- −500 -->
      <g transform="translate(655 309.767379)scale(0.1 -0.1)">
       <defs>
        <path id="DejaVuSans-35" d="M 691 4666 
L 3169 4666 
L 3169 4134 
L 1269 4134 
L 1269 2991 
Q 1406 3038 1543 3061 
Q 1681 3084 1819 3084 
Q 2600 3084 3056 2656 
Q 3513 2228 3513 1497 
Q 3513 744 3044 326 
Q 2575 -91 1722 -91 
Q 1428 -91 1123 -41 
Q 819 9 494 109 
L 494 744 
Q 775 591 1075 516 
Q 1375 441 1709 441 
Q 2250 441 2565 725 
Q 2881 1009 2881 1497 
Q 2881 1984 2565 2268 
Q 2250 2553 1709 2553 
Q 1456 2553 1204 2497 
Q 953 2441 691 2322 
L 691 4666 
z
" transform="scale(0.015625)"/>
       </defs>
       <use xlink:href="#DejaVuSans-2212"/>
       <use xlink:href="#DejaVuSans-35" x="83.789062"/>
       <use xlink:href="#DejaVuSans-30" x="147.412109"/>
       <use xlink:href="#DejaVuSans-30" x="211.035156"/>
      </g>
     </g>
    </g>
    <g id="ytick_9">
     <g id="line2d_20">
      <g>
       <use xlink:href="#mc316b5724d" x="648" y="232.682655" style="stroke: #000000; stroke-width: 0.8"/>
      </g>
     </g>
     <g id="text_21">
      <!-- 0 -->
      <g transform="translate(655 236.481874)scale(0.1 -0.1)">
       <use xlink:href="#DejaVuSans-30"/>
      </g>
     </g>
    </g>
    <g id="ytick_10">
     <g id="line2d_21">
      <g>
       <use xlink:href="#mc316b5724d" x="648" y="159.39715" style="stroke: #000000; stroke-width: 0.8"/>
      </g>
     </g>
     <g id="text_22">
      <!-- 500 -->
      <g transform="translate(655 163.196369)scale(0.1 -0.1)">
       <use xlink:href="#DejaVuSans-35"/>
       <use xlink:href="#DejaVuSans-30" x="63.623047"/>
       <use xlink:href="#DejaVuSans-30" x="127.246094"/>
      </g>
     </g>
    </g>
    <g id="ytick_11">
     <g id="line2d_22">
      <g>
       <use xlink:href="#mc316b5724d" x="648" y="86.111646" style="stroke: #000000; stroke-width: 0.8"/>
      </g>
     </g>
     <g id="text_23">
      <!-- 1000 -->
      <g transform="translate(655 89.910864)scale(0.1 -0.1)">
       <use xlink:href="#DejaVuSans-31"/>
       <use xlink:href="#DejaVuSans-30" x="63.623047"/>
       <use xlink:href="#DejaVuSans-30" x="127.246094"/>
       <use xlink:href="#DejaVuSans-30" x="190.869141"/>
      </g>
     </g>
    </g>
    <g id="text_24">
     <!-- Diff. Bitcoin Value (Dollar) -->
     <g transform="translate(700.428125 315.079063)rotate(-90)scale(0.1 -0.1)">
      <defs>
       <path id="DejaVuSans-56" d="M 1831 0 
L 50 4666 
L 709 4666 
L 2188 738 
L 3669 4666 
L 4325 4666 
L 2547 0 
L 1831 0 
z
" transform="scale(0.015625)"/>
       <path id="DejaVuSans-61" d="M 2194 1759 
Q 1497 1759 1228 1600 
Q 959 1441 959 1056 
Q 959 750 1161 570 
Q 1363 391 1709 391 
Q 2188 391 2477 730 
Q 2766 1069 2766 1631 
L 2766 1759 
L 2194 1759 
z
M 3341 1997 
L 3341 0 
L 2766 0 
L 2766 531 
Q 2569 213 2275 61 
Q 1981 -91 1556 -91 
Q 1019 -91 701 211 
Q 384 513 384 1019 
Q 384 1609 779 1909 
Q 1175 2209 1959 2209 
L 2766 2209 
L 2766 2266 
Q 2766 2663 2505 2880 
Q 2244 3097 1772 3097 
Q 1472 3097 1187 3025 
Q 903 2953 641 2809 
L 641 3341 
Q 956 3463 1253 3523 
Q 1550 3584 1831 3584 
Q 2591 3584 2966 3190 
Q 3341 2797 3341 1997 
z
" transform="scale(0.015625)"/>
       <path id="DejaVuSans-6c" d="M 603 4863 
L 1178 4863 
L 1178 0 
L 603 0 
L 603 4863 
z
" transform="scale(0.015625)"/>
       <path id="DejaVuSans-75" d="M 544 1381 
L 544 3500 
L 1119 3500 
L 1119 1403 
Q 1119 906 1312 657 
Q 1506 409 1894 409 
Q 2359 409 2629 706 
Q 2900 1003 2900 1516 
L 2900 3500 
L 3475 3500 
L 3475 0 
L 2900 0 
L 2900 538 
Q 2691 219 2414 64 
Q 2138 -91 1772 -91 
Q 1169 -91 856 284 
Q 544 659 544 1381 
z
M 1991 3584 
L 1991 3584 
z
" transform="scale(0.015625)"/>
       <path id="DejaVuSans-72" d="M 2631 2963 
Q 2534 3019 2420 3045 
Q 2306 3072 2169 3072 
Q 1681 3072 1420 2755 
Q 1159 2438 1159 1844 
L 1159 0 
L 581 0 
L 581 3500 
L 1159 3500 
L 1159 2956 
Q 1341 3275 1631 3429 
Q 1922 3584 2338 3584 
Q 2397 3584 2469 3576 
Q 2541 3569 2628 3553 
L 2631 2963 
z
" transform="scale(0.015625)"/>
      </defs>
      <use xlink:href="#DejaVuSans-44"/>
      <use xlink:href="#DejaVuSans-69" x="77.001953"/>
      <use xlink:href="#DejaVuSans-66" x="104.785156"/>
      <use xlink:href="#DejaVuSans-66" x="139.990234"/>
      <use xlink:href="#DejaVuSans-2e" x="167.945312"/>
      <use xlink:href="#DejaVuSans-20" x="199.732422"/>
      <use xlink:href="#DejaVuSans-42" x="231.519531"/>
      <use xlink:href="#DejaVuSans-69" x="300.123047"/>
      <use xlink:href="#DejaVuSans-74" x="327.90625"/>
      <use xlink:href="#DejaVuSans-63" x="367.115234"/>
      <use xlink:href="#DejaVuSans-6f" x="422.095703"/>
      <use xlink:href="#DejaVuSans-69" x="483.277344"/>
      <use xlink:href="#DejaVuSans-6e" x="511.060547"/>
      <use xlink:href="#DejaVuSans-20" x="574.439453"/>
      <use xlink:href="#DejaVuSans-56" x="606.226562"/>
      <use xlink:href="#DejaVuSans-61" x="666.884766"/>
      <use xlink:href="#DejaVuSans-6c" x="728.164062"/>
      <use xlink:href="#DejaVuSans-75" x="755.947266"/>
      <use xlink:href="#DejaVuSans-65" x="819.326172"/>
      <use xlink:href="#DejaVuSans-20" x="880.849609"/>
      <use xlink:href="#DejaVuSans-28" x="912.636719"/>
      <use xlink:href="#DejaVuSans-44" x="951.650391"/>
      <use xlink:href="#DejaVuSans-6f" x="1028.652344"/>
      <use xlink:href="#DejaVuSans-6c" x="1089.833984"/>
      <use xlink:href="#DejaVuSans-6c" x="1117.617188"/>
      <use xlink:href="#DejaVuSans-61" x="1145.400391"/>
      <use xlink:href="#DejaVuSans-72" x="1206.679688"/>
      <use xlink:href="#DejaVuSans-29" x="1247.792969"/>
     </g>
    </g>
   </g>
   <g id="line2d_23">
    <path d="M 106.052055 227.631006 
L 107.580822 225.481957 
L 109.109589 223.405212 
L 109.873973 222.680934 
L 110.638356 222.218798 
L 111.40274 221.999026 
L 112.931507 222.016772 
L 115.224658 222.34808 
L 115.989041 222.533299 
L 116.753425 222.851357 
L 117.517808 223.376006 
L 118.282192 224.168328 
L 119.046575 225.259761 
L 119.810959 226.644031 
L 121.339726 230.082428 
L 123.632877 235.667173 
L 125.161644 238.87998 
L 126.690411 241.516915 
L 128.219178 243.666278 
L 128.983562 244.530876 
L 129.747945 245.210641 
L 130.512329 245.65828 
L 131.276712 245.852015 
L 132.041096 245.808871 
L 133.569863 245.393348 
L 134.334247 245.367244 
L 135.09863 245.753534 
L 135.863014 246.760058 
L 136.627397 248.530273 
L 137.391781 251.102263 
L 138.920548 258.123432 
L 140.449315 265.469295 
L 141.213699 268.157934 
L 141.978082 269.615444 
L 142.742466 269.540688 
L 143.506849 267.805051 
L 144.271233 264.470618 
L 145.035616 259.789411 
L 146.564384 248.08842 
L 148.093151 236.578526 
L 148.857534 231.958013 
L 149.621918 228.419136 
L 150.386301 226.02075 
L 151.150685 224.680367 
L 151.915068 224.210032 
L 152.679452 224.353218 
L 154.972603 225.854414 
L 155.736986 226.070588 
L 156.50137 226.014817 
L 157.265753 225.735389 
L 158.794521 224.946109 
L 159.558904 224.704113 
L 160.323288 224.735505 
L 161.087671 225.091529 
L 161.852055 225.783605 
L 162.616438 226.756813 
L 164.909589 230.244244 
L 165.673973 231.153139 
L 166.438356 231.754667 
L 167.20274 231.994659 
L 167.967123 231.863091 
L 168.731507 231.37624 
L 169.49589 230.575984 
L 170.260274 229.512556 
L 171.789041 226.761801 
L 173.317808 223.401285 
L 177.139726 214.488261 
L 177.90411 213.196028 
L 178.668493 212.268893 
L 179.432877 211.771067 
L 180.19726 211.74631 
L 180.961644 212.206493 
L 181.726027 213.133734 
L 182.490411 214.479329 
L 184.019178 218.094697 
L 186.312329 224.069584 
L 187.076712 225.710115 
L 187.841096 227.030045 
L 188.605479 228.007149 
L 189.369863 228.685153 
L 192.427397 230.535707 
L 193.956164 232.163134 
L 195.484932 233.925107 
L 196.249315 234.504848 
L 197.013699 234.694146 
L 197.778082 234.42209 
L 198.542466 233.679902 
L 199.306849 232.543196 
L 201.6 228.326197 
L 202.364384 227.242729 
L 203.128767 226.545 
L 203.893151 226.290875 
L 204.657534 226.473408 
L 205.421918 227.040993 
L 206.186301 227.903996 
L 207.715068 230.125947 
L 210.008219 233.456973 
L 211.536986 235.060867 
L 212.30137 235.592478 
L 213.065753 235.9308 
L 213.830137 236.085207 
L 214.594521 236.07581 
L 216.123288 235.729236 
L 217.652055 235.294205 
L 219.180822 235.138145 
L 220.709589 235.381905 
L 223.00274 235.977701 
L 223.767123 236.033453 
L 224.531507 235.946177 
L 225.29589 235.700737 
L 226.060274 235.302957 
L 227.589041 234.173789 
L 229.882192 232.380463 
L 230.646575 231.95207 
L 231.410959 231.661946 
L 232.175342 231.520388 
L 232.939726 231.514201 
L 234.468493 231.787639 
L 235.99726 232.067702 
L 236.761644 232.037439 
L 237.526027 231.80604 
L 238.290411 231.30665 
L 239.054795 230.495231 
L 239.819178 229.340645 
L 240.583562 227.835222 
L 241.347945 225.994213 
L 242.876712 221.506942 
L 245.169863 214.299638 
L 245.934247 212.337317 
L 246.69863 210.84385 
L 247.463014 209.930364 
L 248.227397 209.660748 
L 248.991781 210.033839 
L 249.756164 210.993646 
L 250.520548 212.424992 
L 252.049315 216.115551 
L 253.578082 219.956372 
L 255.106849 223.196652 
L 256.635616 225.60597 
L 258.164384 227.286488 
L 259.693151 228.511252 
L 261.221918 229.668974 
L 262.750685 231.134109 
L 264.279452 232.997477 
L 266.572603 235.824817 
L 268.10137 237.159786 
L 271.158904 239.227024 
L 271.923288 240.07184 
L 272.687671 241.155574 
L 275.745205 246.288029 
L 276.509589 246.960247 
L 277.273973 247.046788 
L 278.038356 246.45518 
L 278.80274 245.183758 
L 279.567123 243.310594 
L 281.09589 238.413147 
L 282.624658 233.374289 
L 283.389041 231.29564 
L 284.153425 229.701296 
L 284.917808 228.663514 
L 285.682192 228.196504 
L 286.446575 228.255154 
L 287.210959 228.748448 
L 288.739726 230.482578 
L 290.268493 232.240421 
L 291.032877 232.846357 
L 291.79726 233.206544 
L 292.561644 233.329885 
L 293.326027 233.261473 
L 294.854795 232.793868 
L 296.383562 232.138765 
L 297.912329 231.251597 
L 298.676712 230.629271 
L 299.441096 229.849226 
L 300.969863 227.837555 
L 303.263014 224.458093 
L 304.791781 222.686188 
L 307.849315 219.971282 
L 308.613699 219.020272 
L 309.378082 217.84729 
L 310.906849 214.966591 
L 312.435616 212.129107 
L 313.2 211.074948 
L 313.964384 210.404962 
L 314.728767 210.15285 
L 315.493151 210.282529 
L 316.257534 210.695388 
L 317.786301 211.773097 
L 318.550685 212.121076 
L 319.315068 212.179606 
L 320.079452 211.893909 
L 320.843836 211.269049 
L 322.372603 209.306225 
L 323.90137 207.205909 
L 324.665753 206.375744 
L 325.430137 205.761856 
L 326.958904 205.041389 
L 328.487671 204.375659 
L 329.252055 203.826695 
L 330.780822 202.219299 
L 332.309589 200.584068 
L 333.073973 200.205971 
L 333.838356 200.390407 
L 334.60274 201.288669 
L 335.367123 202.963368 
L 336.131507 205.367618 
L 337.660274 211.621884 
L 339.189041 217.839536 
L 339.953425 220.210713 
L 340.717808 221.860802 
L 341.482192 222.784895 
L 342.246575 223.112679 
L 344.539726 222.998884 
L 345.30411 223.334005 
L 346.068493 223.971624 
L 347.59726 225.467824 
L 348.361644 225.689304 
L 349.126027 225.062774 
L 349.890411 223.272485 
L 350.654795 220.104482 
L 351.419178 215.522196 
L 352.183562 209.674691 
L 356.005479 176.473223 
L 356.769863 172.216102 
L 357.534247 169.220498 
L 358.29863 167.278407 
L 360.591781 163.491124 
L 361.356164 161.369559 
L 362.120548 158.276303 
L 362.884932 154.094636 
L 363.649315 148.887978 
L 365.178082 136.221575 
L 367.471233 116.430337 
L 368.235616 111.370761 
L 369 108.009438 
L 369.764384 106.920078 
L 370.528767 108.664629 
L 371.293151 113.630867 
L 372.057534 121.969399 
L 372.821918 133.514009 
L 374.350685 163.95251 
L 376.643836 214.875761 
L 378.172603 243.395666 
L 378.936986 254.931073 
L 379.70137 264.590259 
L 380.465753 272.364056 
L 381.230137 278.198673 
L 381.994521 281.967936 
L 382.758904 283.435447 
L 383.523288 282.430532 
L 384.287671 278.801432 
L 385.052055 272.527253 
L 385.816438 263.782249 
L 386.580822 252.851541 
L 388.109589 226.134716 
L 391.167123 164.704137 
L 393.460274 120.852658 
L 394.989041 97.344639 
L 395.753425 88.560812 
L 396.517808 82.270625 
L 397.282192 78.672825 
L 398.046575 77.776364 
L 398.810959 79.365845 
L 399.575342 83.145011 
L 400.339726 88.72757 
L 401.10411 95.886224 
L 401.868493 104.502247 
L 402.632877 114.734305 
L 403.39726 126.878492 
L 404.161644 141.272052 
L 405.690411 177.08492 
L 407.983562 238.111026 
L 408.747945 254.809082 
L 409.512329 267.003017 
L 410.276712 273.525161 
L 411.041096 273.836617 
L 411.805479 268.095665 
L 412.569863 257.02704 
L 413.334247 241.81774 
L 417.156164 152.219608 
L 417.920548 139.768248 
L 418.684932 131.102285 
L 419.449315 126.692198 
L 420.213699 126.790303 
L 420.978082 131.368325 
L 421.742466 140.07837 
L 422.506849 152.298515 
L 424.035616 183.510338 
L 425.564384 216.487521 
L 426.328767 230.982906 
L 427.093151 242.901768 
L 427.857534 251.527126 
L 428.621918 256.370923 
L 429.386301 257.205573 
L 430.150685 254.171744 
L 430.915068 247.739111 
L 431.679452 238.77007 
L 433.972603 208.421526 
L 434.736986 200.978596 
L 435.50137 196.113744 
L 436.265753 193.911699 
L 437.030137 194.014417 
L 437.794521 195.749811 
L 439.323288 200.689807 
L 440.087671 202.449696 
L 440.852055 203.285941 
L 441.616438 203.348883 
L 442.380822 203.206665 
L 443.145205 203.713496 
L 443.909589 205.886147 
L 444.673973 210.632896 
L 445.438356 218.631372 
L 446.20274 230.084117 
L 446.967123 244.646843 
L 450.024658 309.554157 
L 450.789041 319.257879 
L 451.553425 323.554421 
L 452.317808 321.866642 
L 453.082192 314.282142 
L 453.846575 301.596 
L 455.375342 266.447006 
L 456.90411 230.009664 
L 457.668493 215.369306 
L 458.432877 204.602909 
L 459.19726 198.28602 
L 459.961644 196.483397 
L 460.726027 199.052769 
L 461.490411 205.603827 
L 462.254795 215.752681 
L 463.019178 229.108425 
L 463.783562 245.348325 
L 465.312329 285.040716 
L 468.369863 374.624872 
L 469.134247 393.240605 
L 469.89863 408.134792 
L 470.663014 418.465509 
L 471.427397 423.703636 
L 472.191781 423.654115 
L 472.956164 418.497377 
L 473.720548 408.738351 
L 474.484932 395.192459 
L 476.013699 360.994592 
L 478.306849 308.561911 
L 479.071233 294.179718 
L 479.835616 282.049236 
L 480.6 272.16132 
L 481.364384 264.374085 
L 482.128767 258.422739 
L 482.893151 253.9616 
L 483.657534 250.623834 
L 485.186301 245.708492 
L 485.950685 243.282005 
L 486.715068 240.376809 
L 487.479452 236.803506 
L 490.536986 220.477358 
L 491.30137 219.030369 
L 492.065753 220.04207 
L 492.830137 223.898766 
L 493.594521 230.531373 
L 494.358904 239.455974 
L 496.652055 269.683814 
L 497.416438 276.961262 
L 498.180822 281.252234 
L 498.945205 282.164267 
L 499.709589 279.755571 
L 500.473973 274.524866 
L 502.00274 259.043384 
L 503.531507 243.379939 
L 504.29589 237.491406 
L 505.060274 233.462868 
L 505.824658 231.386823 
L 506.589041 231.103091 
L 507.353425 232.258448 
L 508.117808 234.480452 
L 509.646575 240.535418 
L 511.175342 246.851476 
L 512.70411 252.261783 
L 513.468493 254.41058 
L 514.232877 256.008758 
L 514.99726 256.839786 
L 515.761644 256.593109 
L 516.526027 254.929323 
L 517.290411 251.471916 
L 518.054795 245.903069 
L 518.819178 238.035126 
L 519.583562 227.883781 
L 521.112329 201.914032 
L 523.405479 159.426198 
L 524.169863 148.115365 
L 524.934247 139.674639 
L 525.69863 134.630781 
L 526.463014 133.090212 
L 527.227397 134.756265 
L 527.991781 138.91457 
L 530.284932 156.01273 
L 531.049315 160.001463 
L 531.813699 162.194746 
L 532.578082 162.6675 
L 533.342466 161.882879 
L 534.106849 160.545376 
L 534.871233 159.478458 
L 535.635616 159.364594 
L 536.4 160.672532 
L 537.164384 163.528283 
L 537.928767 167.750322 
L 540.986301 188.086135 
L 541.750685 191.632209 
L 542.515068 194.200288 
L 543.279452 196.007691 
L 544.808219 198.88276 
L 545.572603 200.703622 
L 546.336986 203.094044 
L 547.865753 209.393866 
L 549.394521 215.937525 
L 550.158904 218.518177 
L 550.923288 220.450326 
L 551.687671 221.838911 
L 552.452055 222.992864 
L 553.216438 224.396569 
L 553.980822 226.546368 
L 554.745205 229.857881 
L 555.509589 234.51112 
L 557.038356 247.146998 
L 558.567123 260.173366 
L 559.331507 264.915142 
L 560.09589 267.721808 
L 560.860274 268.460874 
L 561.624658 267.421373 
L 563.917808 261.082886 
L 564.682192 260.601399 
L 565.446575 261.711102 
L 566.210959 264.241167 
L 567.739726 271.066514 
L 568.50411 273.457104 
L 569.268493 273.858798 
L 570.032877 271.471254 
L 570.79726 265.789077 
L 571.561644 256.585944 
L 572.326027 243.985049 
L 573.090411 228.360501 
L 574.619178 190.864888 
L 576.912329 133.28587 
L 577.676712 117.803978 
L 578.441096 105.500951 
L 579.205479 96.747854 
L 579.969863 91.571373 
L 580.734247 89.655938 
L 581.49863 90.4251 
L 582.263014 93.136022 
L 583.791781 101.506343 
L 586.084932 115.863534 
L 586.849315 121.470165 
L 587.613699 128.164865 
L 588.378082 136.363121 
L 589.142466 146.30409 
L 590.671233 170.872329 
L 592.964384 210.223 
L 593.728767 220.630071 
L 594.493151 228.489435 
L 595.257534 233.491671 
L 596.021918 235.623748 
L 596.786301 235.17046 
L 597.550685 232.608239 
L 598.315068 228.487321 
L 599.843836 217.939113 
L 601.372603 207.380612 
L 602.136986 203.044544 
L 602.90137 199.827327 
L 603.665753 198.146391 
L 604.430137 198.452177 
L 605.194521 201.175119 
L 605.958904 206.617188 
L 606.723288 214.880923 
L 607.487671 225.796637 
L 609.016438 253.277669 
L 610.545205 282.172564 
L 611.309589 294.556254 
L 612.073973 304.396378 
L 612.838356 311.156002 
L 613.60274 314.676103 
L 614.367123 315.124932 
L 615.131507 312.96323 
L 615.89589 308.859616 
L 618.189041 293.037826 
L 618.953425 289.163044 
L 619.717808 287.010051 
L 620.482192 286.936187 
L 621.246575 289.051828 
L 622.010959 293.192116 
L 622.775342 298.924657 
L 625.068493 317.940098 
L 625.832877 321.982228 
L 626.59726 323.727191 
L 627.361644 322.897865 
L 628.126027 319.551245 
L 628.890411 314.056048 
L 630.419178 298.91147 
L 634.241096 257.389433 
L 636.534247 234.650929 
L 637.29863 228.17958 
L 638.063014 223.005145 
L 638.827397 219.698112 
L 639.591781 218.76601 
L 640.356164 220.518749 
L 641.120548 224.978262 
L 641.884932 231.869537 
L 643.413699 250.550737 
L 644.942466 270.747725 
L 645.706849 279.734912 
L 646.471233 287.391477 
L 647.235616 293.482138 
L 648 297.869684 
L 648.764384 300.440719 
L 649.528767 301.128914 
L 650.293151 299.941897 
L 651.057534 296.936394 
L 651.821918 292.345405 
L 654.879452 269.323014 
L 655.643836 266.154197 
L 656.408219 265.302758 
L 657.172603 266.991784 
L 657.936986 271.028721 
L 658.70137 276.862725 
L 660.230137 290.324745 
L 660.994521 295.768782 
L 661.758904 299.013028 
L 662.523288 299.32698 
L 663.287671 296.351369 
L 664.052055 290.142458 
L 664.816438 281.100817 
L 666.345205 257.383764 
L 668.638356 218.922838 
L 670.167123 196.994935 
L 670.931507 187.80755 
L 671.69589 180.04025 
L 672.460274 173.932149 
L 673.224658 169.742921 
L 673.989041 167.702228 
L 674.753425 167.892943 
L 675.517808 170.188259 
L 676.282192 174.223027 
L 679.339726 195.183592 
L 680.10411 198.756658 
L 680.868493 201.174281 
L 681.632877 202.590369 
L 682.39726 203.286506 
L 683.161644 203.54625 
L 683.161644 203.54625 
" clip-path="url(#p7893495406)" style="fill: none; stroke: #ffa500; stroke-width: 1.5; stroke-linecap: square"/>
   </g>
   <g id="patch_8">
    <path d="M 90 441 
L 90 60.48 
" style="fill: none; stroke: #000000; stroke-width: 0.8; stroke-linejoin: miter; stroke-linecap: square"/>
   </g>
   <g id="patch_9">
    <path d="M 648 441 
L 648 60.48 
" style="fill: none; stroke: #000000; stroke-width: 0.8; stroke-linejoin: miter; stroke-linecap: square"/>
   </g>
   <g id="patch_10">
    <path d="M 90 441 
L 648 441 
" style="fill: none; stroke: #000000; stroke-width: 0.8; stroke-linejoin: miter; stroke-linecap: square"/>
   </g>
   <g id="patch_11">
    <path d="M 90 60.48 
L 648 60.48 
" style="fill: none; stroke: #000000; stroke-width: 0.8; stroke-linejoin: miter; stroke-linecap: square"/>
   </g>
  </g>
 </g>
 <defs>
  <clipPath id="p7893495406">
   <rect x="90" y="60.48" width="558" height="380.52"/>
  </clipPath>
 </defs>
</svg>
